<?xml version="1.0" standalone="no"?>
<!DOCTYPE svg PUBLIC "-//W3C//DTD SVG 20010904//EN"
 "http://www.w3.org/TR/2001/REC-SVG-20010904/DTD/svg10.dtd">
<svg version="1" xmlns="http://www.w3.org/2000/svg"
 width="1734pt" height="843pt" viewBox="0 0 1734 843"
 preserveAspectRatio="xMidYMid meet">

<g transform="matrix(0.1,0,0,-0.1,0,843)"
fill="#000000" stroke="none">
<path d="M 10220 5905 c 0 -339 -4 -615 -9 -615 c -4 0 -21 18 -36 41 c -60 86 -198 193 -328 254 c -202 96 -476 125 -703 75 c -444 -97 -782 -460 -888 -955 c -39 -182 -48 -462 -21 -655 c 78 -544 406 -950 864 -1070 c 399 -105 827 15 1046 292 c 33 42 63 77 68 77 c 4 1 7 -82 7 -184 l 0 -185 l 165 0 l 165 0 l 0 220 l 0 220 l 240 0 l 240 0 l 0 1550 l 0 1550 l -405 0 l -405 0 l 0 -615 z m -485 -940 c 228 -41 411 -225 461 -464 c 17 -86 20 -265 4 -353 c -62 -338 -358 -549 -681 -483 c -174 35 -320 147 -398 306 c -53 109 -73 203 -72 354 c 0 302 137 525 378 615 c 104 39 191 46 308 25 z"/>
<path d="M 6475 5679 c -633 -54 -1069 -449 -1180 -1066 c -22 -124 -30 -348 -16 -471 c 38 -349 146 -593 359 -814 c 220 -227 492 -348 853 -380 c 427 -37 830 105 1096 385 c 131 138 248 341 287 500 l 6 27 l -432 0 l -433 0 l -30 -51 c -131 -222 -474 -273 -702 -105 c -69 50 -104 94 -144 179 c -27 58 -58 176 -59 220 c 0 16 51 17 924 17 l 924 0 l 6 31 c 12 59 6 363 -9 459 c -75 496 -404 879 -870 1015 c -168 49 -397 70 -580 54 z m 267 -660 c 205 -43 367 -224 368 -411 l 0 -38 l -510 0 l -510 0 l 0 24 c 0 43 48 169 86 223 c 69 100 171 170 287 199 c 66 16 210 17 279 3 z"/>
<path d="M 1915 5669 c -227 -25 -429 -121 -581 -275 l -74 -75 l 0 166 l 0 165 l -405 0 l -405 0 l 0 -1335 l 0 -1335 l 405 0 l 404 0 l 3 798 c 3 796 3 797 26 863 c 48 143 153 253 284 299 c 87 30 249 38 341 16 c 178 -42 300 -160 354 -342 c 16 -53 18 -134 21 -846 l 3 -788 l 405 0 l 404 0 l 0 778 c 0 653 3 787 15 840 c 56 237 236 372 495 372 c 258 0 439 -136 495 -372 c 12 -53 15 -187 15 -840 l 0 -778 l 405 0 l 405 0 l 0 848 c 0 901 -3 950 -50 1122 c -49 175 -167 365 -298 478 c -298 258 -802 324 -1168 153 c -155 -73 -296 -183 -397 -311 c -33 -41 -63 -76 -67 -78 c -4 -2 -22 21 -40 50 c -42 68 -158 188 -235 243 c -202 144 -492 214 -760 184 z"/>
<path d="M 10710 2720 l 0 -550 l 135 0 l 135 0 l 0 550 l 0 550 l -135 0 l -135 0 l 0 -550 z"/>
<path d="M 14140 3047 c -100 -23 -180 -80 -236 -169 c -86 -135 -92 -365 -12 -522 c 31 -60 105 -133 167 -163 c 50 -25 67 -28 161 -28 c 98 0 109 2 158 29 c 29 17 67 46 84 65 l 31 35 l -5 -100 c -5 -104 -18 -142 -60 -180 c -34 -31 -93 -47 -149 -41 c -64 8 -106 31 -131 73 l -20 34 l -130 0 l -131 0 l 7 -41 c 22 -141 160 -261 330 -290 c 94 -16 227 -7 299 21 c 130 49 224 171 247 320 c 5 36 10 263 10 508 l 0 442 l -135 0 l -135 0 l 0 -56 l 0 -56 l -50 45 c -78 70 -193 98 -300 74 z m 240 -247 c 132 -67 145 -293 21 -375 c -104 -70 -241 -21 -281 100 c -20 61 -9 165 22 212 c 50 76 157 104 238 63 z"/>
<path d="M 11595 3037 c -58 -20 -97 -42 -124 -71 c -14 -14 -28 -26 -33 -26 c -4 0 -8 23 -8 50 l 0 50 l -130 0 l -130 0 l 0 -435 l 0 -435 l 129 0 l 129 0 l 4 263 c 3 238 5 266 23 301 c 32 63 64 81 148 81 c 58 0 78 -4 103 -22 c 61 -43 64 -62 64 -357 l 0 -266 l 135 0 l 135 0 l 0 266 c 0 295 3 314 64 357 c 45 32 157 32 202 0 c 61 -43 64 -62 64 -357 l 0 -266 l 136 0 l 136 0 l -4 298 c -3 259 -6 304 -22 354 c -30 88 -80 147 -160 188 c -65 33 -75 35 -165 35 c -84 0 -103 -3 -152 -27 c -31 -16 -77 -50 -104 -77 l -48 -49 l -31 42 c -21 26 -55 53 -99 75 c -56 29 -79 35 -144 38 c -47 2 -94 -2 -118 -10 z"/>
<path d="M 13043 3036 c -215 -68 -328 -360 -238 -616 c 54 -153 175 -248 331 -258 c 101 -6 170 17 240 81 l 54 49 l 0 -61 l 0 -61 l 130 0 l 130 0 l 0 435 l 0 435 l -130 0 l -130 0 l 0 -60 l 0 -59 l -43 43 c -58 58 -134 86 -230 85 c -40 0 -91 -6 -114 -13 z m 273 -232 c 112 -53 148 -236 68 -341 c -59 -77 -170 -95 -253 -40 c -128 85 -113 313 24 382 c 39 20 118 19 161 -1 z"/>
<path d="M 15179 3027 c -182 -63 -279 -208 -279 -417 c 0 -221 117 -383 315 -436 c 59 -16 172 -18 234 -3 c 133 30 257 142 295 267 l 7 22 l -135 0 l -136 0 l -39 -39 c -65 -65 -165 -65 -228 1 c -26 29 -53 83 -53 109 c 0 5 137 9 305 9 l 305 0 l 0 73 c 0 189 -82 327 -238 400 c -59 28 -78 31 -177 34 c -95 3 -119 1 -176 -20 z m 241 -206 c 42 -22 68 -55 76 -98 l 7 -33 l -172 0 l -172 0 l 6 23 c 13 42 53 94 86 110 c 46 22 126 22 169 -2 z"/>
<path d="M 16332 3036 c -50 -16 -117 -60 -138 -90 c -13 -19 -14 -16 -14 37 l 0 57 l -135 0 l -135 0 l 0 -435 l 0 -435 l 134 0 l 135 0 l 3 273 c 3 252 4 274 23 307 c 30 50 78 75 147 75 c 62 0 94 -17 132 -69 c 20 -26 21 -43 24 -307 l 3 -279 l 135 0 l 135 0 l -3 313 c -3 296 -5 315 -26 368 c -30 76 -81 132 -149 165 c -46 23 -73 29 -142 31 c -54 2 -102 -2 -129 -11 z"/>
</g>
</svg>
