<svg xmlns="http://www.w3.org/2000/svg" version="1" width="1000pt" height="1000pt" viewBox="0 0 1000 1000" preserveAspectRatio="xMidYMid meet">

<g transform="matrix(0.1,0,0,-0.1,0,722)" fill="#1f6aa4" stroke="none">
<path transform="matrix(1.6,0,0,1.5,-3593.1,-2285.2)" d="M 5089.7 6247.8 c -302 -29 -572 -94 -840 -204 c -114 -47 -280 -129 -355 -175 c -129 -79 -261 -174 -276 -199 c -24 -40 -33 -104 -20 -139 c 9 -24 80 -126 156 -224 c 46 -59 99 -54 199 19 c 23 16 73 48 111 71 c 39 23 79 47 90 54 c 11 6 65 34 120 61 c 350 173 752 255 1139 232 c 153 -9 345 -35 382 -52 c 11 -5 24 -8 30 -7 c 21 6 221 -58 354 -113 c 152 -63 395 -198 484 -269 c 216 -173 384 -342 502 -505 c 87 -122 119 -124 270 -18 c 114 80 154 118 154 146 c 0 18 -36 -5 -195 -124 c -40 -30 -59 -38 -93 -38 c -52 0 -64 11 -184 166 c -225 291 -534 526 -888 677 c -179 76 -385 134 -439 124 c -14 -3 -35 -1 -46 3 c -11 5 -15 9 -10 9 c 6 1 3 6 -5 11 c -22 14 -30 12 -23 -7 c 5 -13 2 -15 -11 -10 c -10 4 -32 7 -49 7 c -19 0 -27 3 -20 8 c 7 4 -8 9 -34 10 c -26 1 -50 6 -53 12 c -17 27 -339 39 -534 20 c -55 -5 -101 -8 -103 -6 c -2 1 57 13 131 24 c 110 18 177 22 365 22 c 147 0 232 4 236 10 c 7 11 10 34 21 171 c 5 75 4 87 -10 92 c -15 6 -15 9 -1 31 c 13 19 13 25 3 30 c -7 3 3 3 22 0 c 59 -10 28 5 -41 20 c -62 13 -62 14 -21 15 c 125 3 511 -88 722 -170 c 109 -43 244 -102 250 -110 c 3 -4 19 -10 35 -14 c 42 -10 -167 99 -271 141 c -262 105 -510 166 -793 194 c -94 9 -377 11 -461 4 z m 433 -41 c -18 -2 -48 -2 -65 0 c -18 2 -4 4 32 4 c 36 0 50 -2 33 -4 z m 96 -150 c -1 -62 -6 -56 -11 15 c -2 23 0 42 4 42 c 5 0 7 -26 7 -57 z m -22 -195 c -2 -13 -4 -3 -4 22 c 0 25 2 35 4 23 c 2 -13 2 -33 0 -45 z m 220 -144 c -3 -3 -12 -4 -19 -1 c -8 3 -5 6 6 6 c 11 1 17 -2 13 -5 z" fill="#1f6aa4"/>

<path transform="matrix(1.6,0,0,1.5,-3516.8,-1927.8)" d="M 5068 5162.7 c -279 -26 -632 -154 -880 -318 c -113 -75 -129 -93 -144 -165 c -14 -66 -15 -66 102 -231 c 65 -90 94 -115 135 -116 c 23 0 62 16 72 30 c 13 17 164 108 250 151 c 206 102 416 148 650 145 c 371 -6 666 -113 940 -342 c 109 -91 228 -221 277 -304 c 31 -54 102 -66 150 -26 c 15 12 72 53 126 90 c 66 46 99 76 103 92 c 4 14 5 27 2 29 c -2 2 -60 -36 -128 -86 c -165 -118 -194 -118 -277 0 c -65 91 -221 246 -321 319 c -68 50 -232 139 -317 173 c -75 30 -162 51 -237 56 c -55 4 -85 10 -84 17 c 2 6 1 8 -1 4 c -6 -11 -63 -10 -63 1 c 0 4 -12 6 -27 4 c -23 -4 -25 -2 -13 7 c 12 9 9 10 -14 5 c -17 -3 -32 -2 -36 5 c -9 15 -227 15 -325 0 c -73 -11 -192 -38 -240 -56 c -11 -4 -17 -4 -14 0 c 4 4 42 21 85 37 c 147 55 287 79 477 81 c 70 1 127 5 127 10 c 0 4 -9 8 -21 8 c -11 0 -17 5 -14 10 c 3 6 15 10 26 10 c 10 0 20 6 20 13 c 1 6 2 17 4 22 c 1 6 3 18 3 28 c 1 9 9 17 17 17 c 12 0 15 13 15 55 c 0 32 7 69 16 87 c 16 31 16 31 -9 24 c -14 -3 -36 -2 -49 3 c -21 9 -21 10 10 10 c 17 1 32 6 32 11 c 0 6 17 11 38 11 c 50 2 -101 26 -238 38 l -105 10 l 145 -4 c 407 -11 791 -146 1113 -393 c 90 -69 77 -44 -16 30 c -380 302 -865 444 -1362 398 z m 582 -526 c -3 -3 -12 -4 -19 -1 c -8 3 -5 6 6 6 c 11 1 17 -2 13 -5 z" fill="#1f6aa4"/>
<path transform="matrix(1.6,0,0,1.5,-3175.8,38.6)" d="M 3538.8 245.2 c -111 -74 -161 -121 -149 -141 c 3 -4 10 -3 17 2 c 7 6 64 44 127 85 c 171 111 180 109 305 -66 c 75 -104 216 -246 321 -321 c 155 -111 386 -215 448 -202 c 22 5 28 3 24 -8 c -4 -9 2 -14 21 -15 c 23 -2 24 -1 6 8 c -16 7 -14 8 10 3 c 17 -3 47 -8 69 -11 c 26 -4 34 -8 25 -14 c -7 -4 -10 -11 -6 -15 c 3 -4 12 -2 19 3 c 15 12 79 13 72 2 c -22 -35 348 -47 486 -15 c 113 26 136 29 129 22 c -11 -12 -172 -56 -258 -71 c -47 -8 -158 -15 -246 -16 c -154 -2 -160 -2 -166 -23 c -3 -11 -11 -20 -17 -19 c -7 2 -12 -6 -12 -17 c 0 -13 7 -20 19 -20 c 15 0 19 -11 25 -62 c 3 -34 4 -64 1 -66 c -3 -3 -5 7 -5 21 c 0 25 -3 27 -39 27 c -38 0 -39 -1 -43 -40 c -3 -33 0 -40 14 -40 c 19 0 23 -16 10 -37 c -5 -8 -13 -9 -22 -3 c -18 11 -40 -6 -40 -31 c 0 -14 11 -19 48 -24 c 26 -4 64 -11 85 -16 c 20 -6 41 -8 45 -5 c 5 3 30 1 58 -3 l 49 -9 l -68 -1 c -143 -2 -468 71 -627 141 c -102 45 -259 129 -323 172 c -92 62 -188 136 -209 161 c -9 11 -19 17 -22 14 c -11 -11 154 -149 264 -221 c 182 -119 402 -214 601 -257 c 52 -12 114 -26 139 -32 c 83 -21 421 -23 550 -5 c 289 43 584 152 806 300 c 69 46 80 57 92 96 c 25 84 21 98 -72 238 c -76 116 -90 132 -123 141 c -41 12 -34 14 -167 -66 c -100 -60 -210 -111 -316 -147 c -203 -67 -465 -90 -650 -56 c -25 5 -76 14 -115 20 c -38 7 -79 16 -90 20 c -11 4 -51 18 -90 30 c -103 33 -207 84 -320 158 c -128 84 -316 270 -408 403 c -37 53 -74 100 -83 103 c -45 17 -81 4 -199 -75 z m 1982 -665 c -3 -3 -12 -4 -19 -1 c -8 3 -5 6 6 6 c 11 1 17 -2 13 -5 z m -777 -421 c 0 -21 -14 -15 -26 11 c -11 23 -10 24 7 13 c 11 -7 19 -17 19 -24 z" fill="#1f6aa4"/>
<path transform="matrix(1.6,0,0,1.5,-3079.6,404.1)" d="M 2889.8 -392.3 c -164 -95 -284 -192 -263 -213 c 2 -3 60 32 129 77 c 103 68 131 82 162 81 c 42 -1 74 -25 110 -83 c 76 -125 282 -364 405 -469 c 90 -77 212 -163 332 -235 c 108 -65 291 -156 313 -156 c 7 0 17 -4 23 -8 c 13 -12 87 -38 174 -61 c 41 -11 91 -25 110 -30 c 19 -6 36 -11 37 -11 c 1 0 0 6 -3 14 c -5 12 0 13 30 4 c 26 -8 33 -14 24 -21 c -9 -6 -4 -7 15 -4 c 30 5 129 -11 137 -22 c 3 -4 28 -12 55 -19 c 103 -25 242 -34 415 -29 c 174 5 174 5 100 -10 c -84 -16 -304 -20 -535 -10 c -92 4 -144 3 -136 -2 c 13 -8 13 -12 0 -27 c -13 -15 -11 -16 24 -12 c 23 2 36 0 34 -6 c -2 -6 -10 -11 -18 -12 c -8 0 -24 -2 -36 -2 c -22 -2 -23 -6 -23 -77 c 0 -43 4 -75 10 -75 c 15 0 12 -77 -3 -83 c -7 -3 -26 -3 -43 -1 c -17 2 -7 -4 26 -16 c 52 -19 53 -20 15 -15 c -54 6 -21 -8 65 -29 l 65 -15 l -60 5 c -154 15 -471 96 -637 162 c -89 36 -257 112 -323 147 c -54 29 -73 28 -21 -1 c 19 -10 68 -38 108 -60 c 177 -101 467 -203 713 -253 c 403 -82 822 -73 1209 25 c 243 61 516 171 704 281 c 40 24 75 43 78 43 c 3 0 38 23 79 50 c 64 43 76 56 86 93 c 24 83 18 105 -66 231 c -43 64 -87 123 -99 131 c -40 29 -86 19 -180 -40 c -48 -30 -90 -55 -92 -55 c -3 0 -32 -15 -64 -34 c -168 -99 -451 -197 -690 -240 c -194 -35 -444 -45 -615 -25 c -49 6 -106 12 -125 14 c -19 2 -69 11 -110 20 c -41 10 -90 19 -109 21 c -19 3 -42 9 -52 15 c -10 5 -22 8 -26 8 c -4 -1 -21 3 -36 9 c -16 7 -32 12 -37 12 c -22 0 -245 92 -348 144 c -127 64 -331 198 -430 283 c -158 135 -310 300 -407 442 c -95 139 -148 179 -200 149 z m 1508 -1085 c -7 -2 -19 -2 -25 0 c -7 3 -2 5 12 5 c 14 0 19 -2 13 -5 z m 167 -218 c 0 -19 -4 -35 -10 -35 c -5 0 -10 16 -10 35 c 0 19 5 35 10 35 c 6 0 10 -16 10 -35 z m 13 -212 c -7 -2 -19 -2 -25 0 c -7 3 -2 5 12 5 c 14 0 19 -2 13 -5 z" fill="#1f6aa4"/>
</g>
</svg>